# xmcd
#
# Track frame offsets: 
#        150
#        12185
#        29470
#        44045
#        59656
#        74741
#        84912
#        93932
#        103930
#        116504
#        131078
#        142163
#        155791
#        174715
#        190789
#        201501
#        219876
#        231834
#        253205
#        263978
#
# Disc length: 3675 seconds
#
# Revision: 0
# Processed by: cddbd v1.5.2PL0 Copyright (c) Steve Scherf et al.
# Submitted via: ExactAudioCopy v0.95b4
#
DISCID=3a0e5914
DTITLE=Joe Tex - This is gold [CD 3)
DYEAR=1900
DGENRE=Soul
TTITLE0=Papa was too
TTITLE1=Loose caboose
TTITLE2=Who gave birth to the funk
TTITLE3=Ain't gonna bump no more (with no big fat woman)
TTITLE4=Give the baby anything that the baby wants
TTITLE5=I gotcha
TTITLE6=Heartbreak hotel
TTITLE7=King of the road
TTITLE8=S.Y.S.L.J.F.M.
TTITLE9=Skinny legs and all
TTITLE10=Trying to win your love
TTITLE11=I've got to do a little better
TTITLE12=I can see everybody's baby (but I can't see mine)
TTITLE13=Honey
TTITLE14=Take the fifth amendment
TTITLE15=When a woman stops loving a man
TTITLE16=Sweet sweet woman
TTITLE17=Ode to Billie Jo
TTITLE18=Engine, engine no. 9
TTITLE19=Rain go away
EXTD=
EXTT0=
EXTT1=
EXTT2=
EXTT3=
EXTT4=
EXTT5=
EXTT6=
EXTT7=
EXTT8=
EXTT9=
EXTT10=
EXTT11=
EXTT12=
EXTT13=
EXTT14=
EXTT15=
EXTT16=
EXTT17=
EXTT18=
EXTT19=
PLAYORDER=
